# xmcd CD database file
#
# Track frame offsets:
#	150
#	17223
#	28912
#	43802
#	66435
#	89421
#	108365
#	122991
#	143242
#	163945
#	180297
#	198747
#	220973
#
# Disc length: 3183 seconds
#
# Revision: 0
# Processed by: cddbd v1.5.1PL0 Copyright (c) Steve Scherf et al.
# Submitted via: CDex 1.51
#
DISCID=c80c6d0d
DTITLE=Sojiro - Special Choice Disc 1
DYEAR=2004
DGENRE=New Age
TTITLE0=Spring Clouds
TTITLE1=For Little Children
TTITLE2=Path Of The Country
TTITLE3=Calm Happiness
TTITLE4=Side Of A Fountain
TTITLE5=Birds Songs
TTITLE6=Poem In The Evening
TTITLE7=The Great Yellow River
TTITLE8=Moon-Drops
TTITLE9=Happy Child
TTITLE10=The Rainbow Story
TTITLE11=On The Sunny Side
TTITLE12=Water Spring
EXTD=YEAR: 2004
EXTT0=
EXTT1=
EXTT2=
EXTT3=
EXTT4=
EXTT5=
EXTT6=
EXTT7=
EXTT8=
EXTT9=
EXTT10=
EXTT11=
EXTT12=
PLAYORDER=
